<svg width="603" height="511" viewBox="0 0 603 511" fill="none" xmlns="http://www.w3.org/2000/svg">
<path opacity="0.31" d="M589.399 396.376H12.9571C5.88957 396.376 0 390.638 0 383.428C0 376.366 5.74233 370.48 12.9571 370.48H589.399C596.466 370.48 602.356 376.219 602.356 383.428C602.209 390.638 596.466 396.376 589.399 396.376Z" fill="#BDBDBD"/>
<path d="M22.3811 377.102V218.051H110.872V242.328H48.5897V284.85H102.332V308.685H48.5897V352.531H111.019V377.249H22.3811V377.102Z" fill="#DD4F40"/>
<path d="M200.834 377.102L176.982 310.892H156.663V377.102H130.601V218.051H181.841C188.466 218.051 194.503 218.934 200.098 220.847C205.693 222.76 210.552 225.555 214.675 229.381C218.65 233.206 221.89 237.914 224.098 243.652C226.454 249.391 227.485 256.012 227.485 263.663C227.485 273.668 225.276 282.348 221.153 289.705C216.884 297.062 210.552 302.653 202.16 306.331L229.399 376.955H200.834V377.102ZM202.012 263.663C202.012 256.159 200.098 250.715 196.27 247.036C192.442 243.505 186.994 241.593 179.779 241.593H156.663V287.057H179.632C186.552 287.057 192 285.144 195.976 281.171C199.951 277.346 202.012 271.461 202.012 263.663Z" fill="#DD4F40"/>
<path d="M321.571 377.102L297.718 310.892H277.399V377.102H251.338V218.051H302.577C309.203 218.051 315.24 218.934 320.835 220.847C326.43 222.76 331.289 225.555 335.412 229.381C339.387 233.206 342.626 237.914 344.835 243.652C347.043 249.391 348.221 256.012 348.221 263.663C348.221 273.668 346.013 282.348 341.743 289.705C337.473 297.062 331.142 302.653 322.749 306.331L349.988 376.955H321.571V377.102ZM322.749 263.663C322.749 256.159 320.835 250.715 317.007 247.036C313.178 243.505 307.731 241.593 300.516 241.593H277.399V287.057H300.369C307.289 287.057 312.737 285.144 316.712 281.171C320.688 277.346 322.749 271.461 322.749 263.663Z" fill="#DD4F40"/>
<path d="M465.424 328.842C465.424 336.493 464.246 343.261 461.89 349.441C459.534 355.474 456.148 360.77 451.878 365.037C447.461 369.451 442.454 372.688 436.418 375.042C430.528 377.396 423.902 378.426 416.688 378.426C408.001 378.426 400.491 376.955 394.307 374.159C388.123 371.364 382.97 367.538 379.142 362.683C375.313 357.828 372.369 352.384 370.602 346.057C368.835 339.73 367.804 333.109 367.804 326.047V265.869C367.804 260.278 368.688 254.54 370.455 248.655C372.221 242.917 375.019 237.62 378.847 232.912C382.675 228.203 387.829 224.378 394.013 221.288C400.197 218.198 407.706 216.727 416.835 216.727C425.228 216.727 432.442 218.198 438.626 221.141C444.663 224.084 449.816 227.762 453.792 232.47C457.767 237.179 460.859 242.328 462.773 248.214C464.688 254.099 465.571 259.984 465.571 265.869V328.842H465.424ZM438.921 265.575C438.921 263.662 438.626 261.308 437.89 258.66C437.154 256.012 435.976 253.363 434.356 251.009C432.737 248.508 430.381 246.448 427.583 244.682C424.786 242.917 421.105 242.034 416.688 242.034C412.27 242.034 408.589 242.77 405.645 244.388C402.7 246.007 400.344 247.919 398.577 250.273C396.81 252.628 395.632 255.129 394.749 257.924C394.013 260.72 393.571 263.221 393.571 265.722L393.866 326.635C393.866 334.286 395.632 340.613 399.166 345.91C402.7 351.06 408.589 353.708 416.982 353.708C422.872 353.708 428.025 351.648 432.442 347.675C436.859 343.556 438.921 338.112 438.921 331.049V265.575Z" fill="#DD4F40"/>
<path d="M560.394 377.102L536.541 310.892H516.222V377.102H490.161V218.051H541.4C548.026 218.051 554.062 218.934 559.657 220.847C565.253 222.76 570.111 225.555 574.234 229.381C578.21 233.206 581.449 237.914 583.657 243.652C586.013 249.391 587.044 256.012 587.044 263.663C587.044 273.668 584.835 282.348 580.565 289.705C576.295 297.062 569.964 302.653 561.572 306.331L588.811 376.955H560.394V377.102ZM561.572 263.663C561.572 256.159 559.657 250.715 555.829 247.036C552.001 243.505 546.553 241.593 539.338 241.593H516.222V287.057H539.044C545.964 287.057 551.412 285.144 555.388 281.171C559.51 277.346 561.572 271.461 561.572 263.663Z" fill="#DD4F40"/>
<path d="M200.687 48.1128V80.6292" stroke="#424242" stroke-width="3" stroke-miterlimit="10"/>
<path d="M262.528 0H138.847V57.2348H262.528V0Z" fill="#DD4F40"/>
<path d="M433.177 207.457C434.502 208.782 435.238 210.989 435.68 212.607C436.711 215.697 437.742 218.934 438.772 222.024C439.803 225.261 440.834 228.497 440.245 231.734C439.95 233.059 439.508 234.383 438.331 234.971C437.594 235.413 436.711 235.413 435.827 235.266C433.619 234.824 431.999 232.764 431.116 230.704C430.232 228.645 429.938 226.29 429.054 224.231C427.582 220.552 424.785 216.727 420.662 216.285C418.6 215.991 415.803 215.844 414.331 214.078C412.858 212.313 412.711 208.193 414.772 206.869C415.508 206.428 416.245 206.133 417.128 205.986C419.778 205.545 422.429 205.692 425.079 205.986C427.435 206.133 429.791 205.692 431.999 206.722C432.588 206.869 432.883 207.163 433.177 207.457Z" fill="white" stroke="#424242" stroke-miterlimit="10"/>
<path d="M207.903 91.8111C208.344 89.8983 208.639 88.1327 209.08 86.22C209.817 82.2474 212.025 78.1277 208.933 74.7436C206.283 71.6538 200.541 72.6838 197.301 74.5965C194.062 76.3621 192.001 80.1876 192.737 83.7188C193.473 86.8085 196.271 89.3098 199.51 89.3098C198.626 92.1053 197.89 94.9009 197.154 97.5493C196.123 101.522 198.626 102.993 202.16 102.11C203.044 101.963 203.927 101.669 204.663 101.08C205.694 100.198 206.136 98.8735 206.43 97.5493C207.019 95.7837 207.461 93.8709 207.903 91.8111Z" fill="white" stroke="#424242" stroke-miterlimit="10"/>
<path d="M420.664 202.749C420.075 202.602 419.633 202.455 419.044 202.455C402.259 199.365 383.854 194.216 366.627 195.834C362.946 196.128 359.265 196.864 355.584 197.158C343.069 197.894 330.995 193.48 318.921 190.831C314.063 189.801 309.056 189.213 304.198 188.183C298.161 187.006 291.977 188.183 285.94 187.447C280.639 186.712 275.486 184.505 270.185 185.093C263.412 185.976 257.375 190.243 255.461 197.011C254.578 200.395 255.02 204.073 255.756 207.457C256.492 210.694 257.817 214.078 260.615 215.697C266.652 219.081 277.842 216.874 284.467 217.021C293.449 217.168 302.431 217.463 311.265 217.757C328.934 218.345 346.602 218.934 364.124 218.492C382.234 218.051 400.492 218.492 418.602 219.081C419.633 213.49 420.222 208.193 420.664 202.749Z" fill="#424242"/>
<path d="M122.504 238.061C119.853 240.856 118.528 244.682 117.497 248.36C116.908 250.567 116.614 252.921 117.35 254.981C118.086 257.629 120.589 260.131 123.681 259.542C125.596 259.101 127.068 257.041 127.068 255.128C127.068 254.098 126.479 253.068 125.743 252.333C125.89 251.45 126.037 250.567 126.185 249.684C126.185 249.39 126.332 248.948 126.626 248.801C127.51 247.919 127.804 249.243 127.657 249.831C127.657 250.42 126.921 252.038 127.804 252.48C128.246 252.627 128.688 252.038 128.835 251.45C129.277 249.537 129.424 247.624 129.571 245.712C129.718 243.946 129.866 242.18 130.013 240.415C130.013 239.826 130.16 239.238 130.013 238.649C129.718 237.031 127.951 235.559 126.185 235.706C124.712 236.148 123.387 237.031 122.504 238.061Z" fill="white" stroke="#424242" stroke-miterlimit="10"/>
<path opacity="0.31" d="M467.043 142.572L465.717 143.161C465.276 143.308 464.834 143.161 464.54 142.866C463.214 141.248 462.037 140.071 460.417 139.188C460.122 139.041 459.975 138.452 459.975 138.158L460.564 136.245C460.711 135.804 460.417 135.215 459.975 135.068L456.147 133.597C455.705 133.45 455.116 133.597 454.969 134.186L454.233 136.098C454.086 136.54 453.644 136.687 453.349 136.687C451.583 136.54 449.521 136.687 447.754 137.128C447.313 137.275 446.724 137.128 446.576 136.687L445.693 134.921C445.546 134.48 445.104 133.744 444.662 134.038L440.834 135.804C440.392 135.951 440.245 136.981 440.392 137.422L441.276 139.188C441.423 139.629 441.423 139.924 441.129 140.218C439.803 141.248 438.625 142.572 437.742 144.043C437.448 144.338 437.153 144.485 436.711 144.338L434.945 143.602C434.503 143.455 433.914 143.602 433.767 144.191L432.441 148.016C432.294 148.457 432.441 149.046 433.03 149.193L434.945 149.929C435.386 150.076 435.533 150.517 435.533 150.812C435.239 152.577 435.386 154.196 435.828 156.255C435.975 156.697 435.681 157.138 435.386 157.285L433.767 158.021C433.325 158.168 433.03 158.757 433.178 159.198L434.945 163.024C435.092 163.465 435.681 163.465 436.27 163.318L437.889 162.582C438.331 162.435 438.773 162.582 439.067 162.876C440.098 164.201 441.423 165.378 443.043 166.408C443.337 166.702 443.484 167.143 443.337 167.438L442.748 169.056C442.601 169.497 442.748 170.086 443.337 170.233L447.165 171.557C447.607 171.704 448.196 171.41 448.343 170.969L448.932 169.35C449.079 168.909 449.521 168.615 449.963 168.762C451.73 168.909 453.497 168.909 455.116 168.615C455.558 168.468 455.852 168.762 456.147 169.203L457.03 170.969C457.178 171.41 457.767 171.41 458.356 171.116L462.184 169.35C462.625 169.203 462.625 168.909 462.331 168.468L461.448 166.702C461.3 166.261 461.595 165.819 461.889 165.525C463.362 164.348 464.687 162.876 465.717 161.405C466.012 161.111 466.454 160.964 466.748 160.964L468.515 161.552C468.957 161.699 469.546 161.405 469.693 160.964L471.018 157.138C471.165 156.697 470.871 156.108 470.429 155.961L468.957 155.52C468.515 155.373 468.221 154.931 468.368 154.637C468.515 152.871 468.368 150.959 468.073 149.34C467.926 148.899 468.221 148.457 468.515 148.31L469.84 147.722C470.282 147.575 470.282 147.28 469.987 146.839L468.221 143.014C467.632 142.719 467.484 142.425 467.043 142.572ZM455.264 160.817C450.846 162.876 445.693 160.964 443.632 156.697C441.57 152.43 443.484 147.133 447.754 145.073C452.172 143.014 457.325 144.926 459.386 149.193C461.448 153.46 459.681 158.757 455.264 160.817Z" fill="#BDBDBD"/>
<path opacity="0.31" d="M514.012 167.731L512.245 168.614C511.656 168.909 511.067 168.614 510.773 168.173C509.006 165.966 507.239 164.495 505.325 163.17C504.883 162.876 504.589 162.288 504.883 161.699L505.766 159.051C505.914 158.462 505.619 157.726 505.03 157.432L499.73 155.519C499.141 155.225 498.404 155.667 498.11 156.255L497.079 158.904C496.932 159.345 496.343 159.786 495.901 159.639C493.546 159.345 490.748 159.639 488.392 160.081C487.803 160.228 487.067 160.081 486.773 159.492L485.595 157.138C485.3 156.549 484.859 155.667 484.27 155.961L479.263 158.315C478.674 158.609 478.38 159.786 478.674 160.375L479.852 162.729C480.147 163.317 480 163.759 479.558 164.2C477.791 165.672 476.171 167.437 474.994 169.35C474.699 169.791 474.11 170.086 473.521 169.791L471.165 168.909C470.576 168.614 469.84 169.056 469.546 169.644L467.779 174.794C467.632 175.382 467.926 176.118 468.515 176.412L471.165 177.442C471.754 177.589 472.049 178.178 471.901 178.766C471.607 181.121 471.607 183.475 472.343 186.123C472.49 186.712 472.196 187.3 471.754 187.594L469.546 188.624C468.957 188.919 468.515 189.654 468.809 190.243L471.165 195.245C471.46 195.834 472.196 195.834 472.932 195.54L475.141 194.51C475.582 194.215 476.319 194.51 476.613 194.951C478.086 196.717 479.852 198.482 481.914 199.659C482.355 199.954 482.65 200.542 482.355 201.131L481.472 203.338C481.178 203.926 481.619 204.662 482.208 204.956L487.362 206.722C487.951 207.016 488.687 206.575 488.981 205.986L489.717 203.779C489.865 203.191 490.454 202.896 491.043 202.896C493.398 203.191 495.754 203.043 498.11 202.602C498.699 202.455 499.141 202.749 499.435 203.338L500.466 205.692C500.76 206.28 501.497 206.28 502.233 205.986L507.239 203.632C507.828 203.338 507.828 203.043 507.533 202.455L506.503 200.101C506.208 199.659 506.65 198.924 507.092 198.482C509.006 197.011 510.92 194.951 512.245 192.891C512.539 192.45 513.128 192.156 513.717 192.45L516.073 193.186C516.662 193.333 517.398 193.038 517.693 192.45L519.607 187.3C519.901 186.712 519.46 185.976 518.871 185.682L516.809 185.093C516.22 184.946 515.926 184.358 515.926 183.769C516.22 181.415 516.073 178.766 515.632 176.559C515.484 175.971 515.779 175.382 516.22 175.088L517.987 174.205C518.576 173.911 518.429 173.617 518.135 173.028L515.779 168.026C514.895 167.879 514.601 167.437 514.012 167.731ZM498.11 192.156C492.22 194.951 485.153 192.45 482.355 186.565C479.558 180.679 482.061 173.617 487.951 170.821C493.84 168.026 500.908 170.527 503.705 176.412C506.503 182.445 504 189.36 498.11 192.156Z" fill="#BDBDBD"/>
<path opacity="0.31" d="M30.1835 466.412C26.0608 465.824 21.9381 465.529 18.1099 463.911C13.5454 461.998 9.42274 457.437 10.3062 452.582C11.1896 448.315 15.4596 445.666 19.7295 445.078C23.9994 444.636 28.2694 445.813 32.3921 446.843C39.4596 448.609 46.6743 449.933 53.889 450.816C64.343 451.993 75.8276 452.434 84.073 459.055C89.5209 463.469 93.4963 470.532 100.417 471.856C101.889 472.15 103.361 472.15 104.687 472.592C106.012 473.033 107.484 474.063 107.631 475.534C108.073 478.477 100.711 478.918 98.6497 479.36C92.6129 480.978 86.8706 483.185 80.981 484.951C74.797 486.716 68.024 486.275 61.6927 485.687C55.3614 485.098 47.9994 484.068 44.3184 478.771C42.4043 475.976 41.6681 472.445 39.3123 470.09C37.5454 468.325 35.0424 467.442 32.6865 467.001C31.9503 466.706 31.0669 466.559 30.1835 466.412Z" fill="#BDBDBD"/>
<path d="M12.6621 440.663C11.9259 444.048 12.6621 447.432 14.5762 450.08C16.1958 452.287 18.5517 453.905 21.4964 454.641C24.7357 455.377 27.8277 454.788 30.3308 453.17L94.3799 467L97.9136 450.816L33.7173 436.985C31.3615 434.19 29.0056 432.571 26.5026 431.983C23.5578 431.247 20.3185 431.835 17.8155 433.601C15.1651 435.072 13.3983 437.574 12.6621 440.663ZM21.4964 440.075L21.6437 439.928C21.9382 439.781 22.2326 439.781 22.5271 439.633H22.6743C23.2633 439.486 23.8523 439.486 24.4412 439.633C25.9136 439.928 27.0915 441.84 27.0915 443.312C26.9443 444.93 25.9136 446.402 24.1467 446.696C24.294 446.696 24.5885 446.549 24.7357 446.549C23.8523 446.843 23.1161 446.99 22.2326 446.696C21.3492 446.402 20.4658 445.666 20.024 444.93C19.2878 443.312 19.7296 440.958 21.4964 440.075Z" fill="#424242"/>
<path d="M31.0667 448.021L94.9685 461.851" stroke="white" stroke-miterlimit="10"/>
<path d="M32.5392 441.693L96.441 455.524" stroke="white" stroke-miterlimit="10"/>
<path d="M86.7228 457.878C85.8394 461.998 86.5756 466.118 88.7842 469.649C88.9314 469.943 89.0787 470.237 89.3732 470.385C91.5817 473.474 94.821 475.681 98.6492 476.417C102.183 477.153 105.864 476.711 109.103 475.093L111.165 474.063L99.2382 465.823L105.717 456.554L117.349 464.646L117.496 462.145C117.938 454.494 112.784 447.726 105.275 445.96C96.8824 444.048 88.4897 449.492 86.7228 457.878Z" fill="white" stroke="#424242" stroke-miterlimit="10"/>
<path opacity="0.31" d="M132.515 448.167C124.564 447.284 114.846 444.342 113.227 436.544C111.754 429.776 117.644 423.155 124.417 421.095C131.19 419.035 138.257 420.506 145.178 421.389C155.337 422.86 228.368 423.89 226.307 438.309C225.276 445.519 190.38 447.137 183.754 447.873C166.527 449.638 149.448 450.08 132.515 448.167Z" fill="#BDBDBD"/>
<path d="M193.766 425.067L192.588 429.628L137.373 419.918L138.551 415.356L193.766 425.067Z" fill="#424242"/>
<path d="M233.816 426.245C233.963 426.392 233.963 426.539 234.11 426.686C235.582 428.746 236.171 431.247 235.73 433.601C234.846 438.604 229.84 442.135 224.539 441.105L170.797 431.983L173.595 414.18L227.779 422.419C230.135 423.008 232.343 424.332 233.816 426.245Z" fill="white" stroke="#424242" stroke-miterlimit="10"/>
<path d="M148.269 408.589L155.336 418.741L154.011 422.86L144.735 429.04L123.827 420.212L126.036 408.441L148.269 408.589Z" fill="white" stroke="#424242" stroke-miterlimit="10"/>
<path d="M186.256 422.419L235.875 430.364" stroke="#424242" stroke-miterlimit="10"/>
<path d="M185.225 428.599L234.845 436.544" stroke="#424242" stroke-miterlimit="10"/>
<path d="M175.214 432.719L178.6 414.769" stroke="#424242" stroke-miterlimit="10"/>
<path d="M130.453 419.771L142.233 424.185" stroke="#424242" stroke-miterlimit="10"/>
<path d="M173.743 191.862C168.148 191.126 162.406 192.745 157.105 193.627C154.897 194.069 152.835 194.51 150.627 194.952C147.977 195.54 145.032 195.834 142.529 197.011C138.7 198.777 135.903 202.308 133.694 205.987C131.486 209.665 129.719 213.638 127.952 217.757C125.007 224.231 122.504 230.705 119.854 237.179C119.707 237.62 119.854 238.062 120.296 238.209C124.271 239.974 128.099 242.034 131.927 244.094C132.075 244.241 132.369 244.094 132.369 243.947C133.4 240.71 146.651 218.934 149.743 217.463C151.363 216.727 153.866 216.58 155.633 215.992C159.608 214.815 163.584 213.343 167.265 211.578C170.799 209.959 174.038 208.046 177.277 205.839C178.308 205.104 179.191 204.074 179.78 202.897C182.283 197.306 179.486 192.597 173.743 191.862Z" fill="white" stroke="#424242" stroke-miterlimit="10"/>
<path d="M342.037 269.695C341.007 267.783 339.829 266.017 338.798 264.104C338.209 262.927 337.767 261.75 336.737 260.867C335.412 259.69 333.497 259.396 331.583 259.102C328.933 258.808 326.136 258.366 323.632 259.102C322.602 259.396 321.424 259.837 320.688 260.573C318.479 262.78 320.54 266.753 322.749 268.371C325.105 269.99 327.902 270.431 330.111 272.197C332.32 274.109 333.645 276.758 334.97 279.406C336.148 281.907 337.473 284.409 338.651 286.91C338.945 287.351 339.093 287.94 339.682 288.087C339.976 288.234 340.27 288.087 340.565 288.087C343.657 287.351 345.571 283.967 345.571 280.73C345.866 276.464 344.099 273.079 342.037 269.695Z" fill="white" stroke="#424242" stroke-miterlimit="10"/>
<path d="M149.301 213.196C151.362 215.108 153.865 216.58 156.221 217.315C159.018 218.051 162.405 217.61 164.172 215.255C165.791 213.196 166.38 209.664 169.031 209.223C169.767 209.076 170.65 209.37 171.387 209.517C175.068 210.694 178.749 212.754 182.577 212.166C185.08 211.871 187.288 210.4 188.908 208.487C190.822 206.28 192 203.485 191.558 200.542C190.38 194.951 183.166 193.627 178.454 193.48C172.123 193.038 165.644 193.185 159.607 191.861C155.043 190.831 151.215 190.978 147.534 194.804C144.147 198.335 143.558 204.073 145.62 208.487C146.503 210.253 147.828 211.724 149.301 213.196Z" fill="white" stroke="#424242" stroke-miterlimit="10"/>
<path d="M184.637 178.325C177.128 179.061 174.772 184.063 170.797 189.802C167.557 194.51 164.613 201.425 168.735 206.428C172.122 210.4 176.539 212.166 180.809 214.667C184.49 216.727 187.435 218.493 192.146 218.198C203.484 217.757 215.116 219.081 226.6 218.934C233.962 218.934 241.03 218.934 248.097 216.727C254.281 214.814 256.49 208.782 258.257 202.749C259.876 196.57 260.76 187.889 256.49 182.445C255.901 181.709 255.312 181.121 254.576 180.532C253.545 179.649 252.22 179.061 251.042 178.62C248.686 177.59 246.036 176.707 243.533 177.295C242.944 177.442 242.355 177.59 241.913 177.737C236.76 179.355 231.754 179.944 226.306 180.532C220.269 181.121 213.938 180.532 207.901 179.944C200.392 179.355 192.441 177.442 184.637 178.325Z" fill="white" stroke="#424242" stroke-miterlimit="10"/>
<path d="M325.988 266.017C326.282 263.957 327.018 258.66 325.693 257.336C324.368 256.012 322.601 256.012 320.981 255.57C318.92 255.129 316.712 254.393 314.65 253.805C310.38 252.628 305.963 251.303 301.693 249.979C294.626 247.919 288 245.418 281.227 242.623C272.098 238.797 262.527 234.53 252.662 235.56C250.307 235.855 248.098 236.737 245.889 237.179C243.386 237.767 240.736 238.65 238.527 240.268C235.288 242.623 234.552 246.889 235.877 250.568C239.264 259.396 248.392 259.837 256.196 262.044C260.319 263.074 264.589 263.368 268.859 263.663C282.994 264.84 296.981 266.458 310.969 268.665C314.503 269.254 318.037 269.695 321.57 270.284C322.601 270.431 323.779 270.872 324.957 270.872C325.399 269.254 325.693 267.635 325.988 266.017Z" fill="#424242"/>
<path d="M241.473 256.895C242.062 257.042 242.651 257.042 243.387 256.895C250.896 254.982 257.375 248.361 261.939 242.328C269.154 232.765 273.571 221.73 280.344 212.019C282.405 209.076 285.203 207.016 286.97 203.78C290.062 198.041 291.534 190.538 290.356 184.211C288 171.999 273.865 168.32 262.97 170.086C255.902 171.263 249.571 175.383 242.503 176.707C241.62 176.854 240.736 177.001 240 177.59C239.706 177.737 239.559 178.178 239.411 178.62C239.411 187.301 239.411 195.834 239.411 204.515C239.264 209.812 240 216.727 239.264 221.141C238.822 223.79 236.614 226.879 235.878 229.528C233.816 235.855 233.227 242.623 235.436 248.949C236.025 251.451 238.381 256.159 241.473 256.895Z" fill="#424242"/>
<path d="M203.042 201.572C203.19 201.867 203.337 202.161 203.484 202.455Z" fill="#424242"/>
<path d="M200.834 192.45C203.337 188.477 205.546 183.769 207.313 179.061C209.668 172.881 211.288 166.407 211.877 160.375C212.466 154.784 212.171 149.045 211.73 143.454C210.699 126.828 210.552 110.055 208.638 93.4292C206.871 94.312 194.65 95.4891 194.65 95.0477C192.441 113.439 190.086 131.831 187.877 150.223C187.288 154.489 186.846 158.903 185.374 163.023C183.901 167.29 181.546 171.263 179.337 175.235C175.656 182.003 166.969 193.921 168.589 201.719" fill="white"/>
<path d="M200.834 192.45C203.337 188.477 205.546 183.769 207.313 179.061C209.668 172.881 211.288 166.407 211.877 160.375C212.466 154.784 212.171 149.045 211.73 143.454C210.699 126.828 210.552 110.055 208.638 93.4292C206.871 94.312 194.65 95.4891 194.65 95.0477C192.441 113.439 190.086 131.831 187.877 150.223C187.288 154.489 186.846 158.903 185.374 163.023C183.901 167.29 181.546 171.263 179.337 175.235C175.656 182.003 166.969 193.921 168.589 201.719" stroke="#424242" stroke-miterlimit="10"/>
<path d="M239.557 219.817C244.269 210.842 249.864 202.455 256.342 194.804" stroke="white" stroke-miterlimit="10"/>
<path d="M204.369 198.63C204.074 196.275 203.632 193.921 203.338 191.567C203.191 190.39 203.043 189.213 202.749 188.036C202.749 187.889 202.749 187.889 202.602 187.742C200.246 192.597 196.123 196.275 191.853 199.365C195.829 201.572 199.804 203.926 203.78 206.133C204.958 206.722 204.516 199.512 204.369 198.63Z" fill="#424242"/>
<path d="M161.962 200.69C161.962 201.425 161.373 202.308 160.784 202.897C167.852 206.428 169.03 220.7 168.294 227.468C167.852 232.029 166.527 236.443 166.085 241.004C165.496 247.772 167.263 254.982 171.974 259.984C177.57 266.017 187.14 267.93 194.797 264.987C202.453 262.044 208.343 254.835 209.962 246.742C214.085 226.879 194.797 209.371 182.428 196.57C177.57 191.568 171.386 188.036 164.171 188.331C161.962 188.478 159.901 188.772 157.692 189.361C152.244 190.538 147.386 192.597 144.588 197.453C142.968 200.395 139.876 202.75 138.993 205.987C138.257 208.488 138.993 211.283 140.907 213.049C142.821 214.815 145.766 215.109 147.974 213.785C152.833 210.842 151.214 200.248 157.84 200.543C157.692 199.954 158.134 199.366 158.723 199.071C159.312 198.777 159.901 198.777 160.49 198.924C160.784 198.924 161.079 198.924 161.226 199.071C161.962 199.366 161.962 200.248 161.962 200.69Z" fill="#424242"/>
<path d="M158.283 215.697C157.841 214.226 158.135 212.46 159.166 211.136Z" fill="white"/>
<path d="M158.283 215.697C157.841 214.226 158.135 212.46 159.166 211.136" stroke="#424242" stroke-miterlimit="10"/>
<path d="M288.589 196.717C285.791 203.78 280.343 209.665 277.546 216.875" stroke="white" stroke-miterlimit="10"/>
<path opacity="0.31" d="M485.594 436.397C485.005 437.427 484.711 438.604 484.711 439.928C484.858 442.283 486.625 444.49 488.833 445.372C491.042 446.402 493.545 446.549 495.901 446.402C503.557 446.108 510.919 444.048 517.987 441.253C524.171 438.751 531.68 436.25 536.539 431.542C537.717 430.365 538.6 428.305 537.569 426.981C536.833 425.951 535.508 425.657 534.183 425.362C524.76 423.744 515.042 424.185 505.766 426.539C500.465 427.864 488.833 430.512 485.594 436.397Z" fill="#BDBDBD"/>
<path d="M525.053 364.596C525.053 364.301 525.053 364.154 525.2 363.86C525.642 361.064 527.851 359.005 529.323 356.65C530.796 354.296 531.532 351.648 531.679 349C531.826 343.85 531.679 337.376 533.888 332.668C535.802 328.401 540.513 326.194 543.016 322.074C544.342 319.867 544.783 317.219 545.372 314.718C546.256 310.745 547.875 306.772 550.526 303.683C552.587 301.328 555.237 299.416 557.888 297.65C560.538 295.885 563.041 294.266 565.986 293.236C569.814 291.912 574.084 291.471 575.851 295.443C577.323 298.68 576.587 303.094 575.115 306.184C573.79 308.832 571.728 310.892 569.814 313.099C566.428 316.925 563.336 320.897 560.538 325.164C559.802 326.341 558.918 327.665 558.771 328.989C558.624 330.314 559.066 331.785 559.213 333.109C560.096 340.024 557.299 345.615 551.851 349.882C547.581 353.266 544.931 355.032 543.9 360.917C543.311 364.449 543.016 368.274 540.955 371.364C540.219 372.541 539.041 373.718 538.158 374.748C534.624 378.868 532.415 384.164 531.826 389.755C531.532 392.551 530.943 398.583 526.673 397.406C521.225 395.935 521.961 380.192 523.581 376.513C524.317 374.895 525.2 373.424 525.642 371.805C525.789 369.304 524.906 366.95 525.053 364.596Z" fill="#424242"/>
<path d="M502.232 376.072C502.232 374.012 502.526 371.952 503.115 369.892C503.999 367.244 505.324 364.596 504.882 361.947C504.146 357.386 498.992 355.032 497.373 350.765C495.164 344.88 500.318 339.142 501.495 332.962C502.526 327.812 500.465 322.516 499.14 317.366C498.551 315.159 495.311 302.653 501.79 304.565C502.821 304.86 503.41 305.89 503.999 306.772C507.091 312.805 507.974 320.456 512.98 325.311C515.041 327.371 517.692 328.695 519.606 330.755C522.698 334.139 523.581 339.142 522.992 343.703C521.815 351.648 513.864 356.945 517.103 365.037C518.428 368.421 520.637 371.364 522.403 374.454C526.232 380.927 533.888 406.97 518.428 397.995C510.33 393.434 502.379 385.636 502.232 376.072Z" fill="white" stroke="#424242" stroke-miterlimit="10"/>
<path d="M532.711 376.66C532.858 376.513 532.858 376.366 533.005 376.219C534.92 372.54 537.57 369.303 539.484 365.625C541.104 362.682 542.282 359.446 544.048 356.65C545.815 353.854 548.318 351.206 551.558 350.176C553.619 349.588 556.711 349.882 558.331 351.5C558.772 351.942 559.214 352.53 559.656 353.119C560.539 354.002 561.717 354.59 562.895 355.179C568.49 358.563 570.846 364.889 572.907 370.775C575.116 377.249 577.766 382.693 578.797 389.314C578.944 390.785 579.091 392.551 578.061 393.728C577.177 394.61 575.705 394.758 574.38 394.316C573.202 393.875 572.171 392.992 571.14 392.109C569.962 390.932 568.637 389.755 567.901 388.284C567.312 386.959 567.018 385.635 566.282 384.311C565.398 382.84 564.073 381.81 562.748 380.633C559.067 377.396 556.711 373.57 554.061 369.451C551.41 370.481 548.76 374.012 545.815 375.63C543.312 376.954 539.042 377.543 537.57 380.338C536.245 383.134 536.834 387.107 535.803 390.196C533.594 396.965 528.294 396.082 529.03 388.725C529.619 384.605 530.797 380.486 532.711 376.66Z" fill="white" stroke="#424242" stroke-miterlimit="10"/>
<path d="M549.201 389.608H499.139V395.788H503.262L509.152 429.187H539.336L545.225 395.788H549.201V389.608Z" fill="#424242"/>
<path d="M501.79 396.376H546.698" stroke="white" stroke-miterlimit="10"/>
<path d="M501.642 347.823C502.293 347.823 502.82 347.296 502.82 346.646C502.82 345.996 502.293 345.469 501.642 345.469C500.992 345.469 500.464 345.996 500.464 346.646C500.464 347.296 500.992 347.823 501.642 347.823Z" fill="#424242"/>
<path d="M513.864 351.501C513.864 352.236 513.275 352.678 512.686 352.678C511.95 352.678 511.508 352.089 511.508 351.501C511.508 350.912 512.097 350.323 512.686 350.323C513.275 350.176 513.864 350.765 513.864 351.501Z" fill="#424242"/>
<path d="M511.361 364.89C511.361 365.626 510.772 366.067 510.183 366.067C509.446 366.067 509.005 365.479 509.005 364.89C509.005 364.301 509.594 363.713 510.183 363.713C510.919 363.713 511.361 364.154 511.361 364.89Z" fill="#424242"/>
<path d="M518.723 337.964C518.723 338.7 518.134 339.141 517.545 339.141C516.809 339.141 516.367 338.553 516.367 337.964C516.367 337.229 516.956 336.787 517.545 336.787C518.134 336.787 518.723 337.376 518.723 337.964Z" fill="#424242"/>
<path d="M504.145 313.688C504.145 314.423 503.556 314.865 502.967 314.865C502.378 314.865 501.789 314.276 501.789 313.688C501.789 312.952 502.378 312.511 502.967 312.511C503.556 312.511 504.145 312.952 504.145 313.688Z" fill="#424242"/>
<path d="M519.899 380.633C520.55 380.633 521.077 380.106 521.077 379.456C521.077 378.806 520.55 378.279 519.899 378.279C519.249 378.279 518.721 378.806 518.721 379.456C518.721 380.106 519.249 380.633 519.899 380.633Z" fill="#424242"/>
<path d="M510.183 377.102C510.183 377.838 509.594 378.279 509.005 378.279C508.269 378.279 507.827 377.691 507.827 377.102C507.827 376.366 508.416 375.925 509.005 375.925C509.594 375.778 510.183 376.366 510.183 377.102Z" fill="#424242"/>
<path d="M509.003 331.932C509.003 332.668 508.414 333.109 507.825 333.109C507.089 333.109 506.647 332.521 506.647 331.932C506.647 331.196 507.236 330.755 507.825 330.755C508.414 330.755 509.003 331.196 509.003 331.932Z" fill="#424242"/>
<path opacity="0.31" d="M273.423 507.314C265.177 505.696 256.932 503.636 248.834 501.282C241.177 499.222 233.079 496.573 227.926 490.541C212.465 472.444 237.643 453.758 251.042 445.96C261.938 439.633 274.895 432.129 287.852 434.042C295.214 435.072 302.134 438.162 308.907 441.251C331.582 451.551 354.11 463.174 378.846 466.411C383.999 467.147 426.846 468.177 424.932 475.239C424.637 476.416 423.607 477.446 422.576 478.182C413.594 485.538 402.404 489.364 391.361 493.042C363.68 502.312 335.116 511.287 305.962 510.992C294.919 510.845 284.024 509.521 273.423 507.314Z" fill="#BDBDBD"/>
<path d="M288.589 452.876C285.056 459.497 290.651 464.205 295.215 468.619C296.54 469.796 297.866 470.973 299.485 471.709C302.283 472.886 305.522 472.592 308.467 472.297C330.258 469.943 352.344 467.001 373.694 462.439C378.7 461.409 383.706 460.085 388.712 458.908C395.191 457.437 401.964 454.641 408.295 452.14C414.626 449.639 420.516 446.108 425.669 441.694C425.816 441.547 425.816 441.547 425.964 441.399C426.847 440.811 427.583 440.222 428.32 439.045C430.97 435.955 432.884 432.13 431.264 428.599C429.497 424.479 424.344 423.302 419.78 423.008C406.381 421.978 393.129 423.449 379.878 425.362C371.043 426.686 362.209 428.599 353.227 429.629C344.099 430.806 335.559 429.776 326.43 429.923C311.117 430.217 296.099 439.045 288.589 452.876Z" fill="#424242"/>
<path d="M327.313 420.359C321.865 418.152 316.123 420.211 313.031 413.885C312 411.678 311.411 409.177 310.675 406.675C308.172 399.319 302.724 392.992 295.804 389.461C301.252 384.311 308.467 381.81 315.092 378.426C321.129 375.336 326.724 371.216 331.73 366.655C336.295 362.388 343.51 353.119 339.681 346.351C336.589 340.907 329.08 342.672 324.074 343.849C317.301 345.615 311.264 345.909 305.08 349.882C299.191 353.707 294.184 359.004 289.473 364.301C281.964 372.393 265.62 388.431 276.368 399.907C282.405 406.381 288.589 412.561 295.951 417.71C298.013 419.182 300.074 420.506 302.43 421.536C306.994 423.596 308.761 427.274 313.325 429.334C317.154 431.099 321.129 432.276 325.252 432.424C328.344 432.571 333.35 431.835 333.645 428.157C333.792 424.626 330.111 421.536 327.313 420.359Z" fill="white" stroke="#424242" stroke-miterlimit="10"/>
<path d="M404.465 410.354C401.815 413.885 397.251 416.239 392.981 415.209C388.416 414.179 385.472 409.912 382.968 405.94C379.14 399.613 375.459 392.992 373.545 385.93C371.337 378.132 370.453 365.478 378.257 360.329C383.852 356.65 392.833 358.71 397.251 363.418C406.527 373.718 412.711 396.082 405.496 408.735C405.054 409.324 404.76 409.912 404.465 410.354Z" fill="white" stroke="#424242" stroke-miterlimit="10"/>
<path d="M390.185 347.528C383.265 340.318 375.167 334.874 364.418 335.169C361.473 335.169 358.676 335.757 355.731 335.757C345.571 336.051 335.559 333.55 325.841 337.523C315.387 341.642 305.817 347.675 296.688 354.002C295.952 354.59 313.768 379.014 315.682 381.221C323.044 375.777 321.277 401.231 321.13 404.763C320.835 413.296 320.688 421.977 322.455 430.364C322.897 429.775 323.338 429.187 324.075 429.04C324.958 428.892 325.547 429.922 326.283 430.069C327.903 430.511 330.259 430.069 332.025 430.069C335.265 430.069 338.651 430.069 341.89 430.069C349.4 430.069 357.056 429.922 364.418 428.892C368.394 428.304 372.222 427.715 376.05 427.862C378.111 420.8 377.375 412.266 377.522 405.204C377.67 398.436 377.228 391.815 377.67 385.047C387.387 382.693 396.811 379.603 406.087 375.924C406.676 375.63 401.67 364.448 401.081 363.271C399.019 359.004 396.369 355.032 393.424 351.353C392.394 349.882 391.363 348.705 390.185 347.528Z" fill="#424242"/>
<path d="M336.588 474.356C335.116 475.828 305.668 482.155 305.668 482.155L304.343 467.147L331.729 457.289L336.588 474.356Z" fill="white" stroke="#424242" stroke-miterlimit="10"/>
<path d="M411.091 456.407C414.478 454.494 418.011 452.434 421.692 451.11C425.668 449.638 429.938 448.756 433.03 445.813C436.269 442.723 437.3 438.162 438.036 433.748C438.919 428.893 438.919 423.449 437.594 418.741C435.68 411.972 430.232 406.234 423.312 404.616C419.189 403.733 414.625 404.174 410.797 406.087C407.999 407.558 405.496 409.618 402.698 411.09C400.343 412.267 397.84 413.149 395.337 414.032C387.827 416.975 381.054 421.242 374.134 425.362C367.361 429.481 361.177 434.631 354.551 439.192C351.901 440.958 324.514 454.2 324.514 454.347C328.048 462.292 331.14 470.384 334.379 478.477C352.195 476.122 369.275 470.531 386.502 465.823C389.889 464.94 393.128 463.469 396.514 462.733C400.343 461.851 404.024 460.085 407.41 458.319C408.735 457.731 409.913 457.142 411.091 456.407Z" fill="#424242"/>
<path d="M304.638 483.773C299.19 484.803 293.742 483.626 287.852 483.037C283.288 482.596 278.576 483.331 274.012 482.743C267.975 481.86 263.263 477.593 262.822 471.414C262.527 468.03 262.38 464.204 264.736 461.556C266.65 459.496 269.595 458.76 272.392 459.054C275.19 459.349 277.84 460.379 280.49 461.261C285.055 462.88 289.619 463.91 294.331 464.94C298.159 465.675 301.398 467.588 305.079 465.823C305.227 465.675 305.521 465.675 305.668 465.675C305.963 465.823 305.963 465.97 306.11 466.264C307.435 470.089 308.613 473.768 309.791 477.74C310.38 479.8 311.263 480.83 309.644 482.154C308.466 483.037 306.257 483.479 304.638 483.773Z" fill="#424242"/>
<path d="M363.387 474.356C364.859 475.828 394.307 482.155 394.307 482.155L395.632 467.147L368.246 457.289L363.387 474.356Z" fill="white" stroke="#424242" stroke-miterlimit="10"/>
<path d="M287.853 458.172C282.11 455.965 276.663 453.464 271.509 450.374C269.742 449.344 267.976 448.167 266.798 446.548C265.031 444.194 264.442 441.252 263.853 438.456C261.791 427.863 258.994 419.77 266.65 410.795C272.834 403.439 282.994 400.643 291.387 405.94C296.834 409.324 300.663 415.651 306.699 417.71C309.939 418.887 313.767 418.593 317.006 420.065C319.951 421.389 322.896 423.743 325.693 425.361C332.466 429.481 338.65 434.631 345.276 439.192C347.926 440.957 375.313 454.199 375.313 454.347C371.779 462.292 368.687 470.384 365.448 478.476C347.632 476.122 330.552 470.531 313.325 465.823C304.785 463.616 296.098 461.262 287.853 458.172Z" fill="#424242"/>
<path d="M395.191 483.773C400.639 484.803 406.086 483.626 411.976 483.037C416.54 482.596 421.252 483.332 425.816 482.743C431.559 481.86 438.037 476.122 438.332 470.09C438.479 468.177 437.89 466.264 437.154 464.499C436.712 463.616 436.27 462.733 435.681 461.85C434.356 460.085 432.001 459.055 429.792 458.907C426.405 458.613 422.872 459.643 419.632 460.673C416.246 461.703 413.154 462.144 409.915 463.616C405.792 465.381 401.08 466.117 396.516 465.381C395.338 465.234 394.16 464.94 392.982 465.381C390.479 466.117 390.626 469.942 390.479 472.002C390.185 475.239 390.037 478.476 388.712 481.419C391.068 482.596 393.129 483.332 395.191 483.773Z" fill="#424242"/>
<path d="M382.086 360.771C382.086 360.623 382.086 360.623 382.086 360.771C381.938 359.446 381.938 358.122 381.791 356.945C381.791 356.357 381.644 355.621 381.791 355.032C382.086 353.12 383.705 351.648 385.031 350.324C386.061 349.294 395.337 340.319 396.073 340.76C399.018 342.967 400.785 341.055 402.846 338.701C403.435 337.965 404.172 337.229 404.172 336.199C404.172 335.317 402.994 334.434 402.258 334.875C403.877 332.962 405.497 331.197 407.116 329.137C408.442 327.371 409.914 326.341 408.883 324.134C407.411 320.456 404.172 317.808 400.638 316.042C397.84 314.718 393.423 312.805 390.184 312.952C386.65 313.247 384.883 316.189 382.233 317.955C382.086 318.102 381.938 318.102 381.791 318.102C381.644 318.102 381.497 317.955 381.35 317.808C380.319 316.925 378.699 317.072 377.669 317.808C376.638 318.543 376.049 319.868 375.46 321.045C375.165 321.78 374.871 322.663 375.018 323.546C375.165 324.429 375.902 325.164 376.785 325.017C376.196 325.164 375.018 330.167 374.871 330.755C373.988 333.992 372.073 335.758 369.718 338.112C367.656 340.319 365.3 342.673 362.356 342.526C361.03 342.526 359.411 342.085 358.675 343.115C358.38 343.409 358.38 343.997 358.38 344.439C357.791 351.06 362.061 356.798 367.362 360.182C370.307 362.536 382.38 367.392 382.086 360.771Z" fill="white" stroke="#424242" stroke-miterlimit="10"/>
<path d="M380.318 437.868H304.784C303.459 437.868 302.281 436.838 302.281 435.367V389.903C302.281 388.578 303.312 387.401 304.784 387.401H380.171C381.496 387.401 382.674 388.431 382.674 389.903V435.514C382.674 436.838 381.643 437.868 380.318 437.868Z" fill="#DD4F40"/>
<path d="M347.338 411.237C347.338 413.885 345.276 415.945 342.626 415.945C339.976 415.945 337.914 413.885 337.914 411.237C337.914 408.588 339.976 406.528 342.626 406.528C345.129 406.528 347.338 408.588 347.338 411.237Z" fill="#424242"/>
<path d="M416.245 315.453C416.098 315.012 416.098 314.423 415.804 313.982C415.362 312.805 414.479 311.628 413.301 311.039C412.417 310.598 411.387 310.451 410.356 310.304C409.178 310.156 408 310.156 406.822 310.304C405.644 310.304 404.466 310.451 403.436 310.451C401.669 310.304 399.902 309.715 398.282 309.127C396.663 308.538 394.896 307.802 393.129 307.655C389.448 307.361 386.798 310.156 384.589 312.805C382.086 315.747 380.172 319.132 378.405 322.516C374.871 329.137 373.841 337.229 380.466 342.231C389.153 348.852 399.607 339.73 406.086 334.286C407.411 333.109 408.883 332.374 410.061 331.049C411.387 329.578 412.417 327.812 413.301 326.047C414.184 324.281 415.067 322.663 415.656 320.75C416.245 318.984 416.54 317.219 416.245 315.453ZM386.65 337.523C385.325 337.229 383.853 336.788 382.675 335.905C381.939 335.316 382.822 333.992 383.558 334.581C384.442 335.316 385.914 335.61 386.945 335.905C387.828 336.199 387.534 337.67 386.65 337.523ZM407.411 325.9C407.117 326.782 406.528 327.665 405.939 328.548C403.141 332.226 399.166 336.788 395.19 338.995C395.043 339.142 394.896 339.142 394.748 339.289C393.718 335.61 392.245 331.785 388.859 329.578C385.914 327.665 382.233 327.371 378.847 327.812C380.025 322.663 384 314.718 390.037 314.57C392.245 314.57 394.454 315.6 396.221 316.925C398.135 318.249 399.755 319.72 401.522 321.044C403.877 322.368 408.295 322.663 407.411 325.9Z" fill="#424242"/>
<path d="M394.453 343.261C394.6 342.82 394.894 342.378 395.042 341.937C396.661 338.553 400.342 337.082 403.14 334.727C404.907 333.256 406.674 332.079 408.44 330.608C409.324 329.872 410.06 328.989 410.944 328.401C411.532 328.106 412.416 327.959 412.858 328.401C413.299 328.695 413.299 329.283 413.447 329.872C413.741 333.403 411.68 336.052 410.06 338.847C408.588 341.348 406.232 342.82 404.612 345.321C403.14 347.675 403.287 350.765 403.582 353.56C404.171 358.269 404.612 362.977 405.201 367.685C405.643 372.099 406.821 375.777 407.851 380.044C409.471 386.518 409.324 394.169 409.471 400.937C409.618 407.705 405.201 415.798 398.134 417.122C384.146 419.917 387.091 400.054 386.796 392.109C386.502 385.783 387.974 379.309 389.447 373.129C390.919 366.802 391.066 360.181 392.097 353.708C392.539 350.176 393.128 346.645 394.453 343.261Z" fill="white" stroke="#424242" stroke-miterlimit="10"/>
<path d="M394.454 409.912C394.454 410.501 394.454 411.09 394.307 411.531C394.159 412.708 393.276 414.032 391.951 414.179C390.626 414.326 389.448 413.444 388.564 412.414C385.031 408.441 383.117 403.439 383.117 398.142C383.117 396.67 383.264 395.052 384.147 393.875C385.031 392.698 386.798 391.962 388.123 392.698C389.006 393.286 389.448 394.316 389.742 395.199C390.92 398.436 392.098 401.673 393.276 404.763C393.865 406.234 394.307 408.294 394.454 409.912Z" fill="white"/>
<path d="M399.46 411.236C398.724 411.678 397.987 411.972 397.251 411.825C396.662 411.825 396.515 412.708 397.104 412.855C398.282 413.149 399.46 413.002 400.196 411.972C400.491 411.531 399.902 410.942 399.46 411.236Z" fill="#424242"/>
<path d="M278.283 393.14C277.694 392.551 277.252 391.816 277.399 390.933C277.547 390.344 277.252 389.756 276.516 389.462C275.927 389.314 275.191 389.609 275.043 390.344C274.749 391.963 275.191 393.581 276.516 394.758C277.694 395.788 279.313 394.17 278.283 393.14Z" fill="#424242"/>
<path d="M322.453 469.648C329.815 471.414 337.177 472.885 344.686 474.062" stroke="white" stroke-miterlimit="10"/>
<path d="M371.778 462.586C372.809 460.232 373.839 457.878 374.87 455.671C365.3 450.374 356.024 444.636 346.6 439.045" stroke="white" stroke-miterlimit="10"/>
<path d="M310.233 464.793C303.313 463.175 296.393 460.968 289.767 458.319" stroke="white" stroke-miterlimit="10"/>
<path d="M184.18 32.2969H187.402V36.8477H184.18V43H178.535V36.8477H166.875L166.621 33.293L178.477 14.5625H184.18V32.2969ZM172.246 32.2969H178.535V22.2578L178.164 22.9023L172.246 32.2969Z" fill="white"/>
<path d="M210.59 31.2422C210.59 35.1745 209.776 38.1823 208.148 40.2656C206.521 42.349 204.138 43.3906 201 43.3906C197.901 43.3906 195.531 42.3685 193.891 40.3242C192.25 38.2799 191.41 35.3503 191.371 31.5352V26.3008C191.371 22.3294 192.191 19.3151 193.832 17.2578C195.486 15.2005 197.862 14.1719 200.961 14.1719C204.06 14.1719 206.43 15.194 208.07 17.2383C209.711 19.2695 210.551 22.1927 210.59 26.0078V31.2422ZM204.945 25.5C204.945 23.1432 204.62 21.431 203.969 20.3633C203.331 19.2826 202.328 18.7422 200.961 18.7422C199.633 18.7422 198.65 19.2565 198.012 20.2852C197.387 21.3008 197.055 22.8958 197.016 25.0703V31.9844C197.016 34.3021 197.328 36.0273 197.953 37.1602C198.591 38.2799 199.607 38.8398 201 38.8398C202.38 38.8398 203.376 38.2995 203.988 37.2188C204.6 36.138 204.919 34.4844 204.945 32.2578V25.5Z" fill="white"/>
<path d="M232.117 32.2969H235.34V36.8477H232.117V43H226.473V36.8477H214.812L214.559 33.293L226.414 14.5625H232.117V32.2969ZM220.184 32.2969H226.473V22.2578L226.102 22.9023L220.184 32.2969Z" fill="white"/>
</svg>
